<?xml version="1.0" standalone="no"?>
<!DOCTYPE svg PUBLIC "-//W3C//DTD SVG 20010904//EN"
 "http://www.w3.org/TR/2001/REC-SVG-20010904/DTD/svg10.dtd">
<svg version="1.0" xmlns="http://www.w3.org/2000/svg"
 width="244.000000pt" height="334.000000pt" viewBox="0 0 244.000000 334.000000"
 preserveAspectRatio="xMidYMid meet">
<metadata>
Created by potrace 1.16, written by Peter Selinger 2001-2019
</metadata>
<g transform="translate(0.000000,334.000000) scale(0.100000,-0.100000)"
fill="#000000" stroke="none">
<path d="M1070 3235 c-132 -17 -283 -61 -385 -112 -96 -48 -218 -136 -299
-217 -205 -201 -316 -433 -351 -731 -12 -102 -12 -134 0 -210 31 -206 113
-429 245 -665 23 -41 61 -109 83 -150 51 -94 305 -481 399 -609 130 -176 152
-205 246 -324 103 -130 141 -157 218 -157 96 0 143 49 441 461 156 215 331
486 450 692 62 109 113 200 113 202 0 2 15 36 34 77 63 133 81 185 123 338 36
131 38 348 4 485 -43 176 -96 297 -187 425 -52 75 -193 219 -269 276 -163 123
-355 195 -595 224 -102 12 -147 11 -270 -5z m296 -95 c204 -36 312 -77 464
-175 94 -60 246 -214 316 -320 152 -229 211 -531 153 -780 -76 -327 -425 -928
-881 -1517 -145 -187 -179 -211 -240 -170 -49 32 -269 319 -451 588 -265 392
-404 634 -500 869 -93 228 -117 353 -98 512 35 295 139 505 345 701 100 94
166 139 290 198 183 87 426 124 602 94z"/>
<path d="M1170 2543 c-255 -26 -440 -234 -440 -496 0 -248 166 -442 420 -489
96 -17 229 9 329 65 305 171 322 641 30 836 -94 63 -228 96 -339 84z m180
-116 c82 -27 187 -116 227 -191 43 -83 55 -209 28 -298 -41 -136 -147 -236
-290 -274 -219 -59 -459 107 -484 335 -23 206 113 400 309 441 52 10 160 4
210 -13z"/>
</g>
</svg>
